<?xml version="1.0" encoding="UTF-8" standalone="no"?>
<!-- Created with Inkscape (http://www.inkscape.org/) -->

<svg
   width="29.159555mm"
   height="29.160259mm"
   viewBox="0 0 29.159555 29.160259"
   version="1.1"
   id="svg86505"
   inkscape:version="1.2 (dc2aedaf03, 2022-05-15)"
   sodipodi:docname="bottom-right.svg"
   xmlns:inkscape="http://www.inkscape.org/namespaces/inkscape"
   xmlns:sodipodi="http://sodipodi.sourceforge.net/DTD/sodipodi-0.dtd"
   xmlns="http://www.w3.org/2000/svg"
   xmlns:svg="http://www.w3.org/2000/svg">
  <sodipodi:namedview
     id="namedview86507"
     pagecolor="#505050"
     bordercolor="#eeeeee"
     borderopacity="1"
     inkscape:showpageshadow="0"
     inkscape:pageopacity="0"
     inkscape:pagecheckerboard="0"
     inkscape:deskcolor="#505050"
     inkscape:document-units="mm"
     showgrid="false"
     inkscape:zoom="2.9540685"
     inkscape:cx="69.903593"
     inkscape:cy="97.154147"
     inkscape:window-width="1920"
     inkscape:window-height="1009"
     inkscape:window-x="-8"
     inkscape:window-y="-8"
     inkscape:window-maximized="1"
     inkscape:current-layer="layer1" />
  <defs
     id="defs86502">
    <clipPath
       clipPathUnits="userSpaceOnUse"
       id="clipPath852">
      <path
         d="m 6297.78,4116.13 h 245.66 v 151.7 h -443.97 c 29.09,-14.6 57.13,-31.32 83.75,-49.98 41.9,-29.34 80.42,-63.55 114.56,-101.72 z m 347.85,0 h 151.7 v 151.7 h -151.7 z m -80.2,-80.2 h 58.2 v 58.19 h -58.2 z m 80.2,-267.65 c 38.16,-34.13 72.37,-72.65 101.72,-114.55 18.67,-26.64 35.38,-54.67 49.98,-83.76 v 443.96 h -151.7 z m 173.7,-305.04 -21.19,51.8 c -18.14,44.38 -41.28,86.79 -68.8,126.06 -29.31,41.84 -63.63,80.19 -101.99,113.99 l -3.72,3.28 v 255.56 h -80.19 v 80.19 h -255.57 l -3.28,3.73 c -33.81,38.37 -72.16,72.68 -113.98,101.99 -39.26,27.5 -81.67,50.65 -126.06,68.81 l -51.79,21.18 h 572.67 v -173.7 h 58.2 v 173.7 h 195.7 v -195.71 h -173.7 v -58.19 h 173.7 z"
         id="path850" />
    </clipPath>
    <linearGradient
       x1="0"
       y1="0"
       x2="1"
       y2="0"
       gradientUnits="userSpaceOnUse"
       gradientTransform="matrix(390,-783.334,-783.334,-390,6342.05,4418.36)"
       spreadMethod="pad"
       id="linearGradient868">
      <stop
         style="stop-opacity:1;stop-color:#bb7239"
         offset="0"
         id="stop854" />
      <stop
         style="stop-opacity:1;stop-color:#fceeae"
         offset="0.227451"
         id="stop856" />
      <stop
         style="stop-opacity:1;stop-color:#e09e5b"
         offset="0.521569"
         id="stop858" />
      <stop
         style="stop-opacity:1;stop-color:#fce9a4"
         offset="0.752941"
         id="stop860" />
      <stop
         style="stop-opacity:1;stop-color:#f1d693"
         offset="0.827451"
         id="stop862" />
      <stop
         style="stop-opacity:1;stop-color:#e1bd7c"
         offset="0.921569"
         id="stop864" />
      <stop
         style="stop-opacity:1;stop-color:#d08a4a"
         offset="1"
         id="stop866" />
    </linearGradient>
    <clipPath
       clipPathUnits="userSpaceOnUse"
       id="clipPath878">
      <path
         d="m 6455.66,3926.15 v 98.78 h 98.77 v -98.78 z"
         id="path876" />
    </clipPath>
    <linearGradient
       x1="0"
       y1="0"
       x2="1"
       y2="0"
       gradientUnits="userSpaceOnUse"
       gradientTransform="matrix(389.997,-783.328,-783.328,-389.997,6296,4395.42)"
       spreadMethod="pad"
       id="linearGradient894">
      <stop
         style="stop-opacity:1;stop-color:#bb7239"
         offset="0"
         id="stop880" />
      <stop
         style="stop-opacity:1;stop-color:#fceeae"
         offset="0.227451"
         id="stop882" />
      <stop
         style="stop-opacity:1;stop-color:#e09e5b"
         offset="0.521569"
         id="stop884" />
      <stop
         style="stop-opacity:1;stop-color:#fce9a4"
         offset="0.752941"
         id="stop886" />
      <stop
         style="stop-opacity:1;stop-color:#f1d693"
         offset="0.827451"
         id="stop888" />
      <stop
         style="stop-opacity:1;stop-color:#e1bd7c"
         offset="0.921569"
         id="stop890" />
      <stop
         style="stop-opacity:1;stop-color:#d08a4a"
         offset="1"
         id="stop892" />
    </linearGradient>
    <clipPath
       clipPathUnits="userSpaceOnUse"
       id="clipPath904">
      <path
         d="m 6741.62,4212.12 h -40.28 v -14.14 H 6305.5 v -12 h 395.84 v -14.14 h 14.15 v -395.85 h 11.99 v 395.85 h 14.14 z"
         id="path902" />
    </clipPath>
    <linearGradient
       x1="0"
       y1="0"
       x2="1"
       y2="0"
       gradientUnits="userSpaceOnUse"
       gradientTransform="matrix(-330.472,-293.991,-293.991,330.472,6987.69,4406.17)"
       spreadMethod="pad"
       id="linearGradient920">
      <stop
         style="stop-opacity:1;stop-color:#bb7239"
         offset="0"
         id="stop906" />
      <stop
         style="stop-opacity:1;stop-color:#fceeae"
         offset="0.227451"
         id="stop908" />
      <stop
         style="stop-opacity:1;stop-color:#e09e5b"
         offset="0.521569"
         id="stop910" />
      <stop
         style="stop-opacity:1;stop-color:#fce9a4"
         offset="0.752941"
         id="stop912" />
      <stop
         style="stop-opacity:1;stop-color:#f1d693"
         offset="0.827451"
         id="stop914" />
      <stop
         style="stop-opacity:1;stop-color:#e1bd7c"
         offset="0.921569"
         id="stop916" />
      <stop
         style="stop-opacity:1;stop-color:#d08a4a"
         offset="1"
         id="stop918" />
    </linearGradient>
  </defs>
  <g
     inkscape:label="Layer 1"
     inkscape:groupmode="layer"
     id="layer1"
     transform="translate(30.701611,-124.78416)">
    <g
       id="g86446"
       transform="matrix(0,0.03527778,0.03527778,0,-152.87738,-86.626755)">
      <g
         id="g846">
        <g
           id="g848"
           clip-path="url(#clipPath852)">
          <path
             d="m 6297.78,4116.13 h 245.66 v 151.7 h -443.97 c 29.09,-14.6 57.13,-31.32 83.75,-49.98 41.9,-29.34 80.42,-63.55 114.56,-101.72 z m 347.85,0 h 151.7 v 151.7 h -151.7 z m -80.2,-80.2 h 58.2 v 58.19 h -58.2 z m 80.2,-267.65 c 38.16,-34.13 72.37,-72.65 101.72,-114.55 18.67,-26.64 35.38,-54.67 49.98,-83.76 v 443.96 h -151.7 z m 173.7,-305.04 -21.19,51.8 c -18.14,44.38 -41.28,86.79 -68.8,126.06 -29.31,41.84 -63.63,80.19 -101.99,113.99 l -3.72,3.28 v 255.56 h -80.19 v 80.19 h -255.57 l -3.28,3.73 c -33.81,38.37 -72.16,72.68 -113.98,101.99 -39.26,27.5 -81.67,50.65 -126.06,68.81 l -51.79,21.18 h 572.67 v -173.7 h 58.2 v 173.7 h 195.7 v -195.71 h -173.7 v -58.19 h 173.7 v -572.69"
             style="fill:url(#linearGradient868);fill-opacity:1;fill-rule:nonzero;stroke:none"
             id="path870" />
        </g>
      </g>
      <g
         id="g872">
        <g
           id="g874"
           clip-path="url(#clipPath878)">
          <path
             d="m 6455.66,3926.15 v 98.78 h 98.77 v -98.78 h -98.77"
             style="fill:url(#linearGradient894);fill-opacity:1;fill-rule:nonzero;stroke:none"
             id="path896" />
        </g>
      </g>
      <g
         id="g898">
        <g
           id="g900"
           clip-path="url(#clipPath904)">
          <path
             d="m 6741.62,4212.12 h -40.28 v -14.14 H 6305.5 v -12 h 395.84 v -14.14 h 14.15 v -395.85 h 11.99 v 395.85 h 14.14 v 40.28"
             style="fill:url(#linearGradient920);fill-opacity:1;fill-rule:nonzero;stroke:none"
             id="path922" />
        </g>
      </g>
    </g>
  </g>
</svg>
